<svg xmlns="http://www.w3.org/2000/svg" xmlns:xlink="http://www.w3.org/1999/xlink" width="582" height="344" viewBox="0 0 582 344"><defs><style>.a{fill:#ff7b7b;}.b{clip-path:url(#a);}.c{fill:#e6ebf5;}.d{fill:#86d7b0;}.e{fill:#74c59b;}.f,.i{fill:none;}.f{stroke:#adb6c4;stroke-miterlimit:10;}.g{fill:#e27d4c;}.h{fill:#f2cf53;}.i{stroke:#86d7b0;stroke-linecap:round;stroke-linejoin:round;stroke-width:1.12px;}.j{fill:#ebe8d8;}.k{fill:#dbd7c8;}.l{fill:#e0dccc;}.m{fill:#2e3438;}.n{fill:#06bee1;}.o{fill:#1a2242;}.p{fill:#e9ffff;}.q{fill:#cae1e1;}.r{fill:#3467a7;}.s{fill:#f5dcc6;}.t{fill:#efbeb3;}.u{fill:#303d58;}.v{fill:#fff;}.w{fill:#aacaec;}.x{fill:#b9d4ef;}.y{fill:#c1d9f1;}.z{fill:#adb6c4;}</style><clipPath id="a"><rect class="a" width="582" height="344" transform="translate(392 176)"/></clipPath></defs><g class="b" transform="translate(-392 -176)"><g transform="translate(188.344 -16.102)"><g transform="translate(277.013 201.101)"><path class="c" d="M499.114,397.831H419.974c.068,0,.132-.008.2-.01a12.877,12.877,0,0,1,0-25.752c-.068,0-.132-.01-.2-.01a12.886,12.886,0,0,0,0-25.772h-13.7c.068,0,.132-.008.2-.01a12.87,12.87,0,0,1-.87-25.694h43.733A12.886,12.886,0,0,0,462.224,307.7h0a12.886,12.886,0,0,0-12.885-12.887H405.606a12.87,12.87,0,0,1,.87-25.694c-.068,0-.132-.01-.2-.01H316.219c-.068,0-.132.008-.2.01a12.87,12.87,0,0,1,.87,25.694H278.2A12.887,12.887,0,0,0,265.309,307.7h0A12.887,12.887,0,0,0,278.2,320.582h38.693a12.87,12.87,0,0,1-.87,25.694c.068,0,.132.01.2.01H243.6a12.886,12.886,0,1,0,0,25.772h58.927c-.068,0-.134.008-.2.01a12.877,12.877,0,0,1,0,25.752c.068,0,.134.01.2.01h0a12.886,12.886,0,1,0,0,25.772H499.114a12.886,12.886,0,0,0,0-25.772Z" transform="translate(-230.709 -140.177)"/><path class="c" d="M243.6,270.418h58.927c-.068,0-.134.008-.2.01a12.877,12.877,0,0,1,0,25.752c.068,0,.134.01.2.01h0a12.885,12.885,0,1,0,0,25.771H499.114a12.885,12.885,0,1,0,0-25.771H419.974c.068,0,.132-.01.2-.01a12.877,12.877,0,0,1,0-25.752c-.068,0-.132-.01-.2-.01a12.886,12.886,0,0,0,12.885-12.887h0a12.886,12.886,0,0,0-12.885-12.885h-13.7c.068,0,.132-.009.2-.01a12.877,12.877,0,0,1,0-25.752c-.068,0-.132-.01-.2-.01h13.7a12.886,12.886,0,0,0,0-25.772H302.523a12.886,12.886,0,1,0,0,25.772h13.7c-.068,0-.132.008-.2.01a12.877,12.877,0,0,1,0,25.752c.068,0,.132.01.2.01H243.6a12.887,12.887,0,0,0-12.887,12.885h0A12.887,12.887,0,0,0,243.6,270.418Z" transform="translate(-230.709 -193.101)"/><path class="c" d="M435.136,385.928H391.4a12.87,12.87,0,0,1,.87-25.7c-.068,0-.132-.01-.2-.01H302.016c-.068,0-.132.01-.2.01a12.87,12.87,0,0,1,.87,25.7H263.993a12.887,12.887,0,0,0-12.887,12.885h0A12.887,12.887,0,0,0,263.993,411.7H435.136a12.886,12.886,0,0,0,12.885-12.885h0A12.886,12.886,0,0,0,435.136,385.928Z" transform="translate(-216.506 -76.73)"/></g><g transform="translate(428.477 403.415)"><path class="d" d="M422.124,390.989c-.714-.265-1.213-.441-1.213-.441s-1.744-.616-3.542-1.148-3.637-.987-3.637-.987,1.8-.6,3.647-1.12,3.742-.95,3.742-.95,1.437-.333,3.087-.643a56.081,56.081,0,0,0,2.039-28.32c-.852-.037-1.791-.085-2.731-.143-3-.178-5.981-.461-5.981-.461s-2.979-.278-5.929-.662-5.868-.855-5.868-.855,2.9-.573,5.762-1.247,5.686-1.435,5.686-1.435,2.824-.76,5.6-1.615c.573-.176,1.143-.354,1.69-.529a56.7,56.7,0,0,0-2.984-7.406,55.9,55.9,0,0,0-15.525-19.319c-1.111.611-2.646,1.484-4.154,2.443-2.845,1.786-5.555,3.852-5.555,3.852s-2.717,2.046-5.274,4.365c-2.565,2.3-4.943,4.86-4.943,4.86s1.5-3.148,3.31-6.19c1.788-3.045,3.874-5.957,3.874-5.957s2.065-2.918,4.419-5.676c.621-.736,1.262-1.459,1.869-2.124A56.474,56.474,0,0,0,378.274,312l-1.476,2.2-3,4.482-1.135-5.274-.4-1.876a55.778,55.778,0,0,0-13.554,1.344l47.981,98.214A56.046,56.046,0,0,0,422.124,390.989Z" transform="translate(-338.196 -311.516)"/><path class="e" d="M389.759,410.355c.229-.726.4-1.226.4-1.226s.585-1.754,1.271-3.5,1.457-3.476,1.457-3.476-1.579,1.045-3.125,2.188-3.05,2.366-3.05,2.366-1.145.931-2.405,2.042a56.1,56.1,0,0,1-23.591-15.8c.494-.694,1.035-1.466,1.566-2.241,1.707-2.48,3.311-5,3.311-5s1.613-2.521,3.123-5.082,2.933-5.155,2.933-5.155-2.236,1.937-4.526,3.779-4.626,3.6-4.626,3.6-2.336,1.761-4.718,3.425c-.49.344-.982.685-1.455,1.008a56.617,56.617,0,0,1-4.008-6.9,55.9,55.9,0,0,1-5.7-24.122c1.165-.5,2.8-1.176,4.482-1.776,3.155-1.145,6.453-2.015,6.453-2.015s3.284-.884,6.684-1.476c3.391-.611,6.874-.913,6.874-.913s-3.408-.751-6.918-1.193c-3.5-.461-7.081-.607-7.081-.607s-3.571-.165-7.192,0c-.964.039-1.927.1-2.826.17a56.444,56.444,0,0,1,7.311-21.231l2.645.19,5.381.387-3.462-4.136-1.233-1.472a55.865,55.865,0,0,1,9.393-9.866L415.1,410.531A55.986,55.986,0,0,1,389.759,410.355Z" transform="translate(-346.615 -310.959)"/></g><path class="f" d="M221.656,311.713c34.6-36.188,88.664-44.9,119.881-40.737,15.308,2.042,30.829,6.76,42.295,17.107s17.91,27.28,12.612,41.786-24.356,23.342-37.511,15.253a18.627,18.627,0,0,1-7.874-9.284c-3.815-10.543,5.142-22.278,15.893-25.459s22.278-.185,32.953,3.243a409.437,409.437,0,0,1,75.454,32.927c12.633,7.1,24.963,14.918,38.485,20.137,43.007,16.6,94.954,3.31,127.23-29.611,7.25-7.394,13.857-16.275,14.879-26.58s-5.539-21.9-15.818-23.16c-11.413-1.4-21.194,13.14-15.594,23.184,2.69,4.823,7.768,7.907,13.025,9.6a38.137,38.137,0,0,0,36.627-7.947c11.058-10.076,16.9-27.211,31.375-30.989" transform="translate(0 53.562)"/><g transform="translate(714.279 308.768)"><g transform="translate(12.545)"><path class="g" d="M522.988,268.388a5.6,5.6,0,0,1,3.752-6.98c2.963-.891,6.181,3.381,5.559,6.412-1.678,8.175-.114,11.693-.114,11.693S523.879,271.351,522.988,268.388Z" transform="translate(-517.164 -261.287)"/><path class="h" d="M520.886,271.452a5.6,5.6,0,0,1,.436-7.912c2.3-2.064,7.031.436,7.754,3.445,1.951,8.115,4.86,10.638,4.86,10.638S522.95,273.757,520.886,271.452Z" transform="translate(-519.456 -260.245)"/></g><path class="h" d="M549.587,269.922c-3.589-2.8-6.594-1.54-7.644.679a12.587,12.587,0,0,0-5.672.3,13.758,13.758,0,0,0-4.149,1.825,26.966,26.966,0,0,1-7.4,3.4l-11.091,3.34c-1.011.268-1.781.673-1.513,1.683s1.1.846,2.112.578l11.179-2.487a27.844,27.844,0,0,1,8.239-.694,13.735,13.735,0,0,0,4.528-.47,12.557,12.557,0,0,0,5.077-2.548,3.946,3.946,0,0,0,3.287.6c2.134-.565,4.4-3.028,3.793-5.159A2.078,2.078,0,0,0,549.587,269.922Z" transform="translate(-512.061 -256.396)"/><g transform="translate(1.231 18.635)"><path class="g" d="M513.123,274.987c-.115.032-.227.064-.336.1a5.894,5.894,0,0,1,.811,2.192l.124-.031,1.011-.226a7.08,7.08,0,0,0-.794-2.28Z" transform="translate(-512.787 -270.553)"/><path class="g" d="M514.763,274.495a5.927,5.927,0,0,1,.9,2.431l1.133-.253a7.031,7.031,0,0,0-.879-2.526Z" transform="translate(-511.411 -270.968)"/><path class="g" d="M516.739,273.9a5.925,5.925,0,0,1,.984,2.675l1.133-.251a7.064,7.064,0,0,0-.964-2.772Z" transform="translate(-510.035 -271.382)"/><path class="g" d="M518.715,273.3a5.933,5.933,0,0,1,1.07,2.919l.987-.219c.049-.012.1-.019.144-.029a7.057,7.057,0,0,0-1.047-3.019Z" transform="translate(-508.659 -271.797)"/><path class="g" d="M521.763,272.273c-.363.149-.724.309-1.092.444a6,6,0,0,1,1.193,3.223.516.516,0,0,0,.024.092q.565-.081,1.131-.143A7.1,7.1,0,0,0,521.763,272.273Z" transform="translate(-507.297 -272.273)"/></g></g><g transform="translate(264.69 419.507)"><path class="i" d="M293.96,352.358s18.522,30.14,20.663,63.448" transform="translate(-254.343 -308.612)"/><path class="d" d="M342.551,378.432a2.6,2.6,0,0,1-1.4-4.6l1.683-1.393a12.208,12.208,0,0,0,1.634-17.187h0a12.207,12.207,0,0,0-17.185-1.632,1.457,1.457,0,0,1-2.292-1.637l.005-.012a12.432,12.432,0,0,0-6.689-15.93,12.162,12.162,0,0,0-10.48.6,6.01,6.01,0,0,1-8.449-2.67l-.1-.226a12.208,12.208,0,0,0-16.614-5.873l-.008.022,32.734,72.376,24.758,2.455a12.207,12.207,0,0,0,13.352-10.943h0A12.207,12.207,0,0,0,342.551,378.432Zm-36.393-28.018a1.554,1.554,0,0,1-2.095-.421c-.283-.628.193-1.457,1.067-1.852a1.555,1.555,0,0,1,2.095.422C307.508,349.191,307.03,350.019,306.158,350.414Zm11.986,26.505c-2.231,1.008-4.626.526-5.352-1.077s.5-3.72,2.726-4.729,4.628-.528,5.352,1.077S320.375,375.91,318.144,376.919ZM331.657,354.6a1.2,1.2,0,0,1,.947.092c1.795.848,1.511,5.254-.512,5.712-1.121.254-1.634-1.115-1.754-1.975C330.2,357.437,330.515,355.008,331.657,354.6Zm1.569,43.6c-2.928.336-6.885-.933-8.482-3.554-1.459-2.4-.251-4.841,2.165-5.932a7.575,7.575,0,0,1,8.879,2.463C337.889,393.934,336.978,397.772,333.226,398.2Zm12.717-7.545c-1.413.287-3.785.09-4.034-1.722-.368-2.677,3.435-3.778,5.347-2.792C349.85,387.481,348.178,390.2,345.943,390.658Z" transform="translate(-262.218 -326.569)"/><path class="e" d="M291.037,327.356l-.02-.008a12.207,12.207,0,0,0-6.561,16.354l.1.226a6.008,6.008,0,0,1-3.574,8.107,12.172,12.172,0,0,0-7.374,7.472,12.435,12.435,0,0,0,7.547,15.543l.012,0a1.457,1.457,0,0,1-.283,2.8h0a12.206,12.206,0,0,0-10.124,13.985h0a12.208,12.208,0,0,0,13.985,10.124l2.156-.346a2.6,2.6,0,0,1,2.527,4.09,12.208,12.208,0,0,0,2.8,17.036h0a12.207,12.207,0,0,0,17.035-2.8l14.505-20.212Zm-4.1,29.243a1.266,1.266,0,0,1-.724.514,1.612,1.612,0,0,1-1.7-.292c-1.174-1.52,3.332-2.126,2.463-.294A.7.7,0,0,1,286.937,356.6Zm1.4-1.488c-.589-1.992,2.5-5.5,4.466-3.795,1.189,1.033.551,3.567-.505,4.48C291.119,356.82,288.862,356.874,288.34,355.112Zm10.266,23.253c-2.231,1.008-4.628.526-5.352-1.077s.5-3.72,2.726-4.729,4.626-.528,5.352,1.077S300.835,377.356,298.606,378.365Zm5.411,25.062c-2.835-1.069-3.925-5.131-2.439-9.075s4.992-6.275,7.827-5.2,3.925,5.131,2.439,9.075S306.852,404.5,304.017,403.427Z" transform="translate(-270.605 -326.027)"/></g><g transform="translate(716.35 526.378)"><g transform="translate(5.852)"><path class="j" d="M516.732,396.9l1.164-5.221,5.221-3.882,6.309,1.707,2.61,2.845,1.523,4.552Z" transform="translate(-516.732 -387.802)"/><path class="k" d="M516.732,396.9l1.164-5.221,5.221-3.882.647,2.235,3.775.522-2.369,1.793,2.031,1.954,4.835-1.952,1.523,4.552Z" transform="translate(-516.732 -387.802)"/></g><g transform="translate(0 2.771)"><path class="j" d="M513.282,395.767l.81-3.632,3.632-2.7,4.388,1.187,1.816,1.979,1.059,3.166Z" transform="translate(-513.282 -389.435)"/><path class="l" d="M513.282,395.767l.81-3.632,3.632-2.7.719,2.482-1.739,1.857,3.861.185,3.363-1.358,1.059,3.166Z" transform="translate(-513.282 -389.435)"/></g></g><g transform="translate(264.255 521.54)"><g transform="translate(8.856 0)"><path class="j" d="M251.989,398.724l1.762-7.9,7.9-5.874,9.546,2.582,3.95,4.3,2.3,6.887Z" transform="translate(-251.989 -384.95)"/><path class="k" d="M251.989,398.724l1.762-7.9,7.9-5.874.979,3.381,5.712.79-3.584,2.713,3.073,2.956,7.316-2.953,2.3,6.887Z" transform="translate(-251.989 -384.95)"/></g><g transform="translate(0 4.193)"><path class="j" d="M246.769,397l1.225-5.5,5.5-4.086,6.64,1.8,2.748,2.994,1.6,4.791Z" transform="translate(-246.769 -387.421)"/><path class="l" d="M246.769,397l1.225-5.5,5.5-4.086,1.088,3.755-2.631,2.809,5.842.28,5.089-2.054,1.6,4.791Z" transform="translate(-246.769 -387.421)"/></g></g><g transform="translate(309.454 515.426)"><g transform="translate(50.255 6.912)"><path class="j" d="M303.04,398.563l1.681-7.538,7.538-5.6,9.108,2.464,3.769,4.107,2.2,6.571Z" transform="translate(-303.04 -385.42)"/><path class="l" d="M303.04,398.563l1.681-7.538,7.538-5.6,1.492,5.152-3.609,3.853,8.014.385,6.981-2.818,2.2,6.571Z" transform="translate(-303.04 -385.42)"/></g><g transform="translate(17.807 0)"><path class="j" d="M283.911,401.4l2.565-11.5,11.5-8.552,13.9,3.76,5.751,6.267,3.355,10.027Z" transform="translate(-283.911 -381.346)"/><path class="k" d="M283.911,401.4l2.565-11.5,11.5-8.552,1.425,4.923,8.317,1.151-5.219,3.95,4.474,4.3,10.652-4.3,3.355,10.027Z" transform="translate(-283.911 -381.346)"/></g><g transform="translate(0 4.926)"><path class="j" d="M273.414,399.378l1.935-8.677,8.677-6.452,10.484,2.837,4.338,4.728,2.531,7.564Z" transform="translate(-273.414 -384.25)"/><path class="l" d="M273.414,399.378l1.935-8.677,8.677-6.452,1.717,5.93-4.154,4.435,9.225.443,8.036-3.244,2.531,7.564Z" transform="translate(-273.414 -384.25)"/></g></g><g transform="translate(676.085 522.994)"><g transform="translate(8.028)"><path class="j" d="M494.278,398.294l1.6-7.162,7.162-5.325,8.654,2.341,3.581,3.9,2.089,6.244Z" transform="translate(-494.278 -385.807)"/><path class="k" d="M494.278,398.294l1.6-7.162,7.162-5.325.887,3.065,5.178.717-3.249,2.459,2.786,2.68,6.632-2.677,2.089,6.244Z" transform="translate(-494.278 -385.807)"/></g><g transform="translate(0 3.801)"><path class="j" d="M489.546,396.734l1.111-4.982,4.982-3.7,6.02,1.628,2.491,2.714,1.453,4.343Z" transform="translate(-489.546 -388.048)"/><path class="l" d="M489.546,396.734l1.111-4.982,4.982-3.7.986,3.4L494.239,394l5.3.254,4.614-1.862,1.453,4.343Z" transform="translate(-489.546 -388.048)"/></g></g><g transform="translate(750.1 528.573)"><g transform="translate(4.441 0)"><path class="j" d="M535.8,396l.884-3.962,3.961-2.946,4.787,1.295,1.981,2.159L548.564,396Z" transform="translate(-535.796 -389.096)"/><path class="k" d="M535.8,396l.884-3.962,3.961-2.946.491,1.7,2.865.4-1.8,1.36,1.541,1.482,3.669-1.481L548.564,396Z" transform="translate(-535.796 -389.096)"/></g><g transform="translate(0 2.103)"><path class="j" d="M533.178,395.14l.614-2.756,2.756-2.049,3.33.9,1.378,1.5.8,2.4Z" transform="translate(-533.178 -390.336)"/><path class="l" d="M533.178,395.14l.614-2.756,2.756-2.049.545,1.883-1.319,1.409,2.93.141,2.552-1.03.8,2.4Z" transform="translate(-533.178 -390.336)"/></g></g><g transform="translate(554.438 431.91)"><path class="d" d="M418.56,399.092c.76-.068,1.287-.107,1.287-.107s1.844-.137,3.718-.178,3.769.005,3.769.005-1.576-1.055-3.225-2.039-3.36-1.9-3.36-1.9-1.3-.7-2.811-1.432a56.082,56.082,0,0,1,5.476-27.859c.831.187,1.751.388,2.672.58,2.947.617,5.893,1.125,5.893,1.125s2.948.516,5.893.921,5.888.718,5.888.718-2.65-1.316-5.233-2.717-5.108-2.879-5.108-2.879-2.526-1.476-4.98-3.031c-.507-.319-1.011-.641-1.491-.953a56.55,56.55,0,0,1,4.824-6.363,55.9,55.9,0,0,1,20.057-14.56c.911.882,2.163,2.127,3.367,3.449,2.273,2.47,4.346,5.177,4.346,5.177s2.085,2.689,3.942,5.6c1.869,2.892,3.493,5.988,3.493,5.988s-.623-3.433-1.567-6.843c-.926-3.408-2.173-6.765-2.173-6.765s-1.225-3.359-2.77-6.638c-.407-.875-.836-1.74-1.247-2.541A56.46,56.46,0,0,1,481.63,334.4l.845,2.512,1.718,5.114,2.482-4.79.882-1.7a55.838,55.838,0,0,1,12.724,4.86l-72.108,82.152A56.039,56.039,0,0,1,418.56,399.092Z" transform="translate(-417.834 -333.881)"/><path class="e" d="M448.43,426.361c-.032-.762-.063-1.289-.063-1.289s-.1-1.846-.305-3.71-.492-3.737-.492-3.737,1.248,1.425,2.439,2.933,2.321,3.086,2.321,3.086.86,1.2,1.785,2.6a56.087,56.087,0,0,0,26.914-9.043c-.294-.8-.614-1.686-.923-2.575-.994-2.84-1.88-5.7-1.88-5.7s-.894-2.857-1.678-5.723-1.476-5.746-1.476-5.746,1.651,2.456,3.376,4.836,3.515,4.692,3.515,4.692,1.791,2.312,3.652,4.545c.383.461.768.919,1.14,1.355a56.615,56.615,0,0,0,5.683-5.61A55.9,55.9,0,0,0,504.273,385.5c-.992-.789-2.39-1.868-3.856-2.891-2.745-1.935-5.7-3.64-5.7-3.64s-2.938-1.717-6.063-3.181c-3.109-1.479-6.39-2.687-6.39-2.687s3.484.171,6.987.667c3.5.475,6.991,1.276,6.991,1.276s3.489.78,6.941,1.888c.919.29,1.834.6,2.682.906a56.488,56.488,0,0,0-1.474-22.407l-2.6-.512-5.294-1.04,4.427-3.08,1.576-1.1a55.836,55.836,0,0,0-6.468-11.986L423.93,419.871A56,56,0,0,0,448.43,426.361Z" transform="translate(-413.589 -331.208)"/></g><path class="m" d="M432.3,283.675a24.471,24.471,0,0,0-11.974,1.291,12.244,12.244,0,0,0-6.344,5.44c-1.255,2.181-2.024,4.582-3.081,6.855-2.085,4.48-7.513,4.561-11.058,7.389a10.19,10.19,0,0,0-2.745,3.323,9.651,9.651,0,0,0-.846,4.763c.02,2.483-.417,4.307-2.56,5.739a34.994,34.994,0,0,0-3.581,2.556c-9.086,7.167-10.334,21.945.31,28.894a16.654,16.654,0,0,0,17.635.222,23.48,23.48,0,0,0,8.855-10.663Z" transform="translate(112.256 62.912)"/><path class="n" d="M425.92,314.859l-1.764-.266q-.7-.1-1.4-.173c-11.438-1.108-21.9,8.287-24.339,19.408-.181.828-10.8,53.59-12.6,68.065,8.772,13.2,56.785,20.726,58.439,17.762,11.979-21.476,2.5-78.52,2.5-78.52,1.523-12.631-6.853-23.494-19.567-26.054Q426.557,314.956,425.92,314.859Z" transform="translate(114.312 84.416)"/><g transform="translate(448.52 480.343)"><g transform="translate(124.95 40.267)"><path class="o" d="M453.922,400.364l-17.479-.478c-4.268-.117-7.381-2.76-7.264-7.03h0c.117-4.268,3.649-6.8,7.918-6.682l16.151.582c4.27.117,8.638,2.724,8.521,6.994h0C461.652,398.018,458.19,400.481,453.922,400.364Z" transform="translate(-428.968 -386.171)"/><path class="m" d="M436.388,399.908c-4.19-.115-7.437-3.25-7.332-7.065.1-3.8,3.279-6.775,7.569-6.656l16.694,1.008c4.064.112,8.2,2.585,8.09,6.536-.105,3.813-3.074,6.3-7.389,6.18Z" transform="translate(-429.053 -386.162)"/><path class="p" d="M443.748,386.8,443.4,399.46l.626.017c4.315.119,7.284-2.366,7.389-6.18S447.672,387.069,443.748,386.8Z" transform="translate(-419.062 -385.73)"/><g transform="translate(13.142 1.729)"><g transform="translate(0.236)"><path class="o" d="M436.94,388.048a.882.882,0,1,1,.858.906A.883.883,0,0,1,436.94,388.048Z" transform="translate(-436.94 -387.19)"/><path class="o" d="M439.1,388.107a.882.882,0,1,1,.858.906A.884.884,0,0,1,439.1,388.107Z" transform="translate(-435.434 -387.149)"/><path class="o" d="M441.264,388.166a.882.882,0,1,1,.858.908A.881.881,0,0,1,441.264,388.166Z" transform="translate(-433.929 -387.107)"/></g><g transform="translate(0 8.588)"><path class="o" d="M436.8,393.112a.882.882,0,1,1,.858.906A.883.883,0,0,1,436.8,393.112Z" transform="translate(-436.801 -392.253)"/><path class="o" d="M438.963,393.17a.882.882,0,1,1,.858.906A.883.883,0,0,1,438.963,393.17Z" transform="translate(-435.295 -392.212)"/><path class="o" d="M441.125,393.229a.882.882,0,1,1,.858.907A.882.882,0,0,1,441.125,393.229Z" transform="translate(-433.79 -392.17)"/></g><g transform="translate(0.414 0.545)"><g transform="translate(0.249 0)"><path class="q" d="M441.585,396.737l-.928-.025-3.465-9.2.928.025Z" transform="translate(-437.192 -387.511)"/><path class="q" d="M443.777,396.8l-.928-.025-3.465-9.2.928.025Z" transform="translate(-435.665 -387.469)"/></g><g transform="translate(0 0)"><rect class="p" width="0.929" height="9.103" transform="translate(0.249 0) rotate(1.57)"/><rect class="p" width="0.929" height="9.103" transform="translate(3.963 0.102) rotate(1.57)"/><rect class="p" width="0.929" height="9.103" transform="translate(7.677 0.204) rotate(1.57)"/></g></g></g></g><path class="r" d="M464.7,413.133l.473-17.269s-59.416-39.173-101.644-32.712a9.582,9.582,0,0,0-6.483,4.148h0a9.533,9.533,0,0,0,.321,11.182C365.339,388.648,390.133,408.046,464.7,413.133Z" transform="translate(-355.394 -362.433)"/><path class="s" d="M424.028,384.547l15.708,5.6a4.277,4.277,0,0,1,2.84,4.148h0a4.279,4.279,0,0,1-4.393,4.159l-14.246-.39Z" transform="translate(-307.667 -347.034)"/><rect class="m" width="7.29" height="21.735" transform="matrix(1, 0.027, -0.027, 1, 109.542, 32.031)"/></g><g transform="translate(453.297 474.773)"><g transform="translate(0 45.316)"><path class="m" d="M366.371,400.846l17.438-1.288c4.258-.314,7.245-3.1,6.931-7.357h0c-.315-4.26-3.961-6.622-8.22-6.309l-16.107,1.328c-4.259.314-8.5,3.121-8.186,7.379h0C358.541,398.859,362.111,401.159,366.371,400.846Z" transform="translate(-358.21 -385.862)"/><path class="m" d="M383.767,399.583c4.18-.307,7.279-3.589,7-7.4-.278-3.788-3.589-6.616-7.868-6.3l-16.629,1.779c-4.056.3-8.069,2.962-7.779,6.9.282,3.807,3.362,6.149,7.666,5.832Z" transform="translate(-358.027 -385.863)"/><path class="p" d="M365.848,386.962l.931,12.627-.626.046c-4.3.317-7.384-2.025-7.666-5.832S361.94,387.408,365.848,386.962Z" transform="translate(-358.027 -385.097)"/><g transform="translate(10.107 2.037)"><path class="o" d="M370.245,387.88a.883.883,0,1,0-.816.945A.882.882,0,0,0,370.245,387.88Z" transform="translate(-361.165 -387.063)"/><path class="o" d="M368.088,388.039a.883.883,0,1,0-.814.945A.883.883,0,0,0,368.088,388.039Z" transform="translate(-362.667 -386.953)"/><path class="o" d="M365.93,388.2a.882.882,0,1,0-.814.945A.882.882,0,0,0,365.93,388.2Z" transform="translate(-364.168 -386.842)"/><g transform="translate(0.631 8.568)"><path class="o" d="M370.618,392.931a.883.883,0,1,0-.816.945A.883.883,0,0,0,370.618,392.931Z" transform="translate(-361.537 -392.115)"/><path class="o" d="M368.461,393.09a.883.883,0,1,0-.816.945A.883.883,0,0,0,368.461,393.09Z" transform="translate(-363.039 -392.004)"/><path class="o" d="M366.3,393.249a.883.883,0,1,0-.816.947A.883.883,0,0,0,366.3,393.249Z" transform="translate(-364.541 -391.893)"/></g><g transform="translate(0.302 0.524)"><g transform="translate(0.664)"><path class="q" d="M366.926,396.792l.926-.068,3.035-9.351-.926.068Z" transform="translate(-363.215 -387.372)"/><path class="q" d="M364.738,396.953l.926-.068,3.035-9.351-.926.068Z" transform="translate(-364.738 -387.26)"/></g><g transform="translate(0 0)"><rect class="p" width="0.929" height="9.103" transform="translate(9.007 9.078) rotate(175.779)"/><rect class="p" width="0.929" height="9.103" transform="translate(5.301 9.351) rotate(175.79)"/><rect class="p" width="0.929" height="9.102" transform="translate(1.596 9.625) rotate(175.779)"/></g></g></g></g><g transform="translate(22.795)"><path class="r" d="M387.346,413.815l-1.272-17.23s55.967-29.913,100.024-37.377c2.638-.448,5.072,1.695,6.667,3.844h0a9.53,9.53,0,0,1,.2,11.186C485.472,384.76,461.6,405.283,387.346,413.815Z" transform="translate(-361.603 -359.149)"/><path class="s" d="M389.738,383.8,374.3,390.122a4.278,4.278,0,0,0-2.645,4.275h0a4.278,4.278,0,0,0,4.582,3.952l14.212-1.048Z" transform="translate(-371.648 -341.983)"/><rect class="m" width="7.29" height="21.735" transform="translate(26.247 57.702) rotate(175.781)"/></g></g><path class="s" d="M422.667,378.558a54.224,54.224,0,0,0-6.611-8.656c-.078-.071-.161-.136-.241-.207a95.824,95.824,0,0,1-10.373,6.516l-.137-.059c-.109-.048-.217-.087-.327-.127s-.205-.08-.312-.114-.232-.066-.351-.1c-.1-.027-.205-.056-.31-.078-.124-.025-.251-.041-.378-.059-.1-.014-.2-.032-.3-.042-.137-.012-.278-.012-.419-.015-.1,0-.19-.01-.287-.007-.158,0-.317.022-.478.039-.083.009-.163.01-.248.022a6.4,6.4,0,0,0-.745.153,8.7,8.7,0,0,0-1.924.768,7.707,7.707,0,0,0-1.674,1.216,3.041,3.041,0,0,0-.256.309,3.138,3.138,0,0,0-.572.969,3.728,3.728,0,0,0-.18.967L395.27,381c-5.057,3.735,5.242,15.328,11.006,11.2l2.517-1.881c.265-.18.531-.38.8-.6l.368-.275a2.052,2.052,0,0,0,.385-.392,6.907,6.907,0,0,0,1.674-2.234,3.654,3.654,0,0,0,.129-2.071A96.988,96.988,0,0,0,422.667,378.558Z" transform="translate(119.948 122.968)"/><g transform="translate(527.745 409.344)"><path class="n" d="M431.409,320.578l-3.021,25.067c5.991,9.228,10.232,18.6,8.444,27.411-1.033,4.086-21.218,21.733-34.734,33.243a20.113,20.113,0,0,0,12.382,11.8c12.926-11.545,38.239-29.625,40.939-42.362C459.157,358.1,445.018,335.874,431.409,320.578Z" transform="translate(-402.098 -320.578)"/><path class="m" d="M428.388,335.355c5.991,9.228,10.232,18.6,8.444,27.411-1.033,4.086-21.218,21.733-34.734,33.243,0,0,34.215-21.793,36.915-34.532C440.552,348.2,428.388,335.355,428.388,335.355Z" transform="translate(-402.098 -310.288)"/></g><path class="s" d="M437.3,308.082A19.669,19.669,0,0,0,423.935,284c-10.573-3.135-21.73,3.369-24.661,14-1.036,3.757-2.261,8.2-3.445,12.5a18.042,18.042,0,0,0,12.6,22.19l.707.2-1.874,6.8a8.891,8.891,0,0,0,6.209,10.934h0A8.89,8.89,0,0,0,424.4,344.4l3.189-11.566a97.031,97.031,0,0,1,8.032-20.588A19.744,19.744,0,0,0,437.3,308.082Z" transform="translate(120.826 62.745)"/><path class="t" d="M405.609,306.129a3.522,3.522,0,1,1,2.46,4.331A3.522,3.522,0,0,1,405.609,306.129Z" transform="translate(128.003 76.903)"/><path class="m" d="M449.062,341.248a34.834,34.834,0,0,0-1.764-4.029c-1.1-2.329-.546-4.119.743-6.241a9.637,9.637,0,0,0,1.715-4.524c.271-3.964-2.075-6.77-4.183-9.839-3.6-5.231-.461-11.1-1.359-16.924-1.618-10.5-14.777-17.177-24.442-17.72a22.548,22.548,0,0,0-22.637,16.49l-1.089,3.949,28.766,7.9c.005.01.307.1.824.253l-9.041,32.79a23.476,23.476,0,0,0,2.136,13.694,16.654,16.654,0,0,0,15.257,8.846C446.689,365.389,453.191,352.059,449.062,341.248Z" transform="translate(121.432 61.86)"/><g transform="translate(462.212 347.089)"><g transform="translate(0 16.693)"><path class="s" d="M379.236,293.719c-.938,2.054-3.133,9.995-3.8,11.728a47.762,47.762,0,0,0,8.965,3.081c3.081-3.048,5.812-6.678,8.612-10C388.361,297.127,383.784,295.468,379.236,293.719Z" transform="translate(-355.129 -293.719)"/><g transform="translate(0 8.563)"><path class="n" d="M396.416,304.128c-4.012,6.246-17.856,33.189-16.87,40.213,1,7.113,9.133,7.376,15.25,5.238,4.409-1.539,23.073-13.822,26.012-17.528l-9.048,30.817c-.734,1.018-12.777,6.88-21.2,7.067a29.956,29.956,0,0,1-19.789-6.779c-6.344-5.315-8.022-12.485-7.04-20.512.884-7.22,3.447-14.134,6.373-20.749a182.861,182.861,0,0,1,11.538-21.387c.081-.132,1.018-1.759,1.064-1.74Z" transform="translate(-363.465 -298.767)"/></g></g><g transform="translate(61.48 23.082)"><path class="u" d="M408.675,302.682c-.19-4.356-5.669-7.1-8.836-3.6-.456.506.4,1.135.848.633,2.636-2.913,6.8-.173,6.941,3.135C407.659,303.525,408.7,303.357,408.675,302.682Z" transform="translate(-399.708 -297.486)"/></g><g transform="translate(19.304)"><path class="h" d="M384.743,284.148l28.31,16.381a6.366,6.366,0,0,1,3.281,5.126,6.591,6.591,0,0,1-.1,1.447,6.489,6.489,0,0,1-7.908,4.882l-29.056-6.631Z" transform="translate(-371.765 -283.69)"/><path class="v" d="M391.711,297.818c-2.239,5.73-7.613,8.985-12,7.27s-6.129-7.751-3.888-13.482,7.613-8.985,12-7.27S393.952,292.088,391.711,297.818Z" transform="translate(-374.845 -283.878)"/><path class="w" d="M379.637,302.859c-3.525-1.379-4.846-6.46-2.943-11.326s6.319-7.706,9.844-6.327,4.846,6.458,2.943,11.325S383.162,304.236,379.637,302.859Z" transform="translate(-374.165 -283.197)"/><path class="x" d="M379.8,302.5c-3.335-1.3-4.563-6.166-2.736-10.838s6.025-7.413,9.36-6.11,4.563,6.166,2.736,10.838S383.134,303.806,379.8,302.5Z" transform="translate(-373.891 -282.936)"/><path class="y" d="M381.522,285.3a6.433,6.433,0,0,0-1.958.624l5.744,13.113a11.988,11.988,0,0,0,1.243-2.129C384.89,293.033,383.184,289.177,381.522,285.3Z" transform="translate(-371.56 -282.888)"/><path class="y" d="M383.151,301.432a8.587,8.587,0,0,0,2.631-1.839l-5.917-13.511a10.309,10.309,0,0,0-2.344,2.494Q380.335,295.006,383.151,301.432Z" transform="translate(-372.982 -282.344)"/><path class="s" d="M400.938,292.011c-4.512-9.26-14.485-7.993-16.336-6.692a8.888,8.888,0,0,1,4.494,6.736,1.24,1.24,0,0,0,1.971.77,8.266,8.266,0,0,1,7.182-1.5C399.245,291.577,401.441,293.046,400.938,292.011Z" transform="translate(-368.052 -283.504)"/><g transform="translate(4.539 2.413)"><path class="h" d="M393.2,287.452l28.31,16.381a6.37,6.37,0,0,1,3.279,5.126,6.276,6.276,0,0,1-8.007,6.331l-29.058-6.631Z" transform="translate(-370.418 -283.803)"/><path class="v" d="M400.165,301.122c-2.241,5.73-7.613,8.987-12,7.27s-6.127-7.751-3.888-13.481,7.613-8.987,12-7.272S402.405,295.392,400.165,301.122Z" transform="translate(-373.498 -283.991)"/><path class="w" d="M388.09,306.163c-3.527-1.379-4.846-6.46-2.945-11.326s6.319-7.7,9.846-6.327,4.846,6.46,2.943,11.326S391.615,307.54,388.09,306.163Z" transform="translate(-372.818 -283.309)"/><path class="x" d="M388.3,305.516c-3.325-1.3-4.57-6.092-2.775-10.682s5.959-7.267,9.284-5.966,4.57,6.09,2.777,10.68S391.62,306.815,388.3,305.516Z" transform="translate(-372.523 -283.046)"/><path class="y" d="M383.151,301.432a8.587,8.587,0,0,0,2.631-1.839l-5.917-13.511a10.309,10.309,0,0,0-2.344,2.494Q380.335,295.006,383.151,301.432Z" transform="translate(-377.521 -284.757)"/><path class="y" d="M381.522,285.3a6.433,6.433,0,0,0-1.958.624l5.744,13.113a11.988,11.988,0,0,0,1.243-2.129C384.89,293.033,383.184,289.177,381.522,285.3Z" transform="translate(-376.098 -285.301)"/><path class="y" d="M385.549,292.172c-.022.053-.046.1-.068.154a12.163,12.163,0,0,0-.643,2.314q1.85,4.229,3.7,8.458a4.925,4.925,0,0,0,1.886.212Z" transform="translate(-372.426 -280.517)"/><path class="y" d="M389.766,288.641a6.958,6.958,0,0,0-1.956.78l5.807,13.26a11.655,11.655,0,0,0,1.372-2.115Z" transform="translate(-370.356 -282.975)"/><path class="y" d="M388.18,289.549a10.633,10.633,0,0,0-2.478,2.906l5.44,12.422a8.018,8.018,0,0,0,2.964-1.8Z" transform="translate(-371.824 -282.343)"/></g></g></g><rect class="z" width="546" height="1" transform="translate(221.656 535.101)"/></g></g></svg>