<svg id="chat_audio" xmlns="http://www.w3.org/2000/svg" width="20" height="20" viewBox="0 0 20 20">
  <path id="Path_2766" data-name="Path 2766" d="M0,0H20V20H0Z" fill="none"/>
  <path id="Path_2767" data-name="Path 2767" d="M10,1a3.991,3.991,0,0,1,3.882,4.091V8.364A3.991,3.991,0,0,1,10,12.455,3.991,3.991,0,0,1,6.118,8.364V5.091A3.991,3.991,0,0,1,10,1ZM3.055,9.182H4.619a5.536,5.536,0,0,0,5.38,4.9,5.536,5.536,0,0,0,5.38-4.9h1.565a7.187,7.187,0,0,1-6.168,6.5V19H9.223V15.682a7.187,7.187,0,0,1-6.168-6.5Z" fill="#1867ae"/>
</svg>
