<svg id="chat_video" xmlns="http://www.w3.org/2000/svg" width="20" height="20" viewBox="0 0 20 20">
  <path id="Path_2768" data-name="Path 2768" d="M0,0H20V20H0Z" fill="none"/>
  <path id="Path_2769" data-name="Path 2769" d="M14.091,7.9l4.265-2.737a.441.441,0,0,1,.424-.026A.372.372,0,0,1,19,5.47v9.06a.372.372,0,0,1-.22.333.441.441,0,0,1-.424-.026L14.091,12.1v3.15a.786.786,0,0,1-.818.75H1.818A.786.786,0,0,1,1,15.25V4.75A.786.786,0,0,1,1.818,4H13.273a.786.786,0,0,1,.818.75ZM4.273,7V8.5H5.909V7Z" fill="#1867ae"/>
</svg>
