<svg xmlns="http://www.w3.org/2000/svg" width="75.656" height="40" viewBox="0 0 75.656 40"><defs><style>.a{fill:#07bee2;}.b{fill:#fff;}.c{fill:#1867ae;}.d{fill:#2641b3;}.e{fill:#0f93c8;}.f{fill:#04266b;}.g{fill:#da0b7e;}.h{fill:#03256c;}.i{fill:#353535;}</style></defs><g transform="translate(-213.793 -34.246)"><g transform="translate(213.793 34.246)"><g transform="translate(0 9.178)"><path class="a" d="M221.851,64.255l-8.059,8.059H229.91Z" transform="translate(-213.793 -64.255)"/><g transform="translate(20.594 10.297)"><path class="b" d="M289.189,105.982l-8.059-8.059h16.117Z" transform="translate(-281.131 -97.924)"/></g></g><g transform="translate(6.168 4.585)"><path class="c" d="M245.356,49.237h-11.4l11.4,11.4Z" transform="translate(-233.96 -49.237)"/><g transform="translate(12.979 16.145)"><path class="b" d="M276.4,113.424v-11.4l11.4,11.4Z" transform="translate(-276.399 -102.028)"/></g></g><g transform="translate(9.178)"><g transform="translate(10.297)"><path class="d" d="M285.53,42.3l-8.059-8.059V50.363Z" transform="translate(-277.471 -34.246)"/></g><g transform="translate(0 20.594)"><path class="e" d="M243.8,109.642l8.059-8.059V117.7Z" transform="translate(-243.802 -101.584)"/></g></g><g transform="translate(4.585 6.168)"><g transform="translate(16.145)"><path class="f" d="M292.971,65.809v-11.4l-11.4,11.4Z" transform="translate(-281.575 -54.412)"/></g><g transform="translate(0 12.979)"><path class="g" d="M228.784,96.852h11.4l-11.4,11.4Z" transform="translate(-228.784 -96.852)"/></g></g></g><g transform="translate(234.165 53.351)"><path class="h" d="M282.51,101.672v8.9H280.4v-8.9Zm5.112,0-2.839,3.995,3.07,4.907h-2.441l-2.839-4.753,2.826-4.149Z" transform="translate(-280.404 -100.156)"/><path class="h" d="M310.965,113.388a.661.661,0,0,0,.353.27l-.424,1.323a2.5,2.5,0,0,1-1.028-.276,1.474,1.474,0,0,1-.617-.713,2.279,2.279,0,0,1-2.055,1.028,2.215,2.215,0,0,1-1.619-.591,2.061,2.061,0,0,1-.6-1.541,1.973,1.973,0,0,1,.822-1.708,4.039,4.039,0,0,1,2.376-.591h.694v-.3a1.071,1.071,0,0,0-.257-.829,1.379,1.379,0,0,0-.9-.225,4.18,4.18,0,0,0-.809.1,8.375,8.375,0,0,0-.976.263l-.462-1.336a7.834,7.834,0,0,1,1.316-.373,6.747,6.747,0,0,1,1.252-.128,3.178,3.178,0,0,1,2.145.6,2.3,2.3,0,0,1,.681,1.811v2.646A1.124,1.124,0,0,0,310.965,113.388Zm-2.1-.475v-1.207h-.5a1.78,1.78,0,0,0-1.034.244.869.869,0,0,0-.34.758.891.891,0,0,0,.212.636.764.764,0,0,0,.584.225A1.2,1.2,0,0,0,308.865,112.913Z" transform="translate(-297.459 -104.384)"/><path class="h" d="M335.268,108.713a4.789,4.789,0,0,1,.629,2.659,5.085,5.085,0,0,1-.327,1.882,2.943,2.943,0,0,1-.944,1.3,2.312,2.312,0,0,1-1.439.469,2.112,2.112,0,0,1-1.657-.706v3.121l-2.03.218V107.98h1.786l.1.758a2.479,2.479,0,0,1,1.965-.976A2.138,2.138,0,0,1,335.268,108.713Zm-1.477,2.685a3.654,3.654,0,0,0-.27-1.676.876.876,0,0,0-.81-.469,1.131,1.131,0,0,0-.648.206,1.847,1.847,0,0,0-.533.591v2.877a1.221,1.221,0,0,0,1.04.6Q333.79,113.529,333.791,111.4Z" transform="translate(-314.485 -104.384)"/><path class="h" d="M357.1,111.1a2.93,2.93,0,0,1-.867.4,3.577,3.577,0,0,1-.983.141q-2.235-.013-2.235-2.466v-3.16h-.963V104.6h.963v-1.477l2.03-.231V104.6h1.567l-.218,1.413h-1.349v3.134a1.157,1.157,0,0,0,.154.681.57.57,0,0,0,.488.206,1.491,1.491,0,0,0,.732-.218Z" transform="translate(-330.141 -101.002)"/><path class="h" d="M372.217,97.044a1.179,1.179,0,0,1,0,1.657,1.2,1.2,0,0,1-.867.328,1.177,1.177,0,0,1-.861-.328,1.194,1.194,0,0,1,0-1.657,1.177,1.177,0,0,1,.861-.328A1.2,1.2,0,0,1,372.217,97.044Zm.161,3.269v6.821h-2.03v-6.821Z" transform="translate(-342.706 -96.716)"/><path class="h" d="M386.517,108.476l-2.145,6.821h-2.4l-2.2-6.821h2.209l1.208,5.279,1.259-5.279Z" transform="translate(-349.383 -104.879)"/><path class="h" d="M407.731,113.388a.662.662,0,0,0,.353.27l-.424,1.323a2.5,2.5,0,0,1-1.028-.276,1.472,1.472,0,0,1-.616-.713,2.279,2.279,0,0,1-2.055,1.028,2.214,2.214,0,0,1-1.618-.591,2.061,2.061,0,0,1-.6-1.541,1.974,1.974,0,0,1,.822-1.708,4.038,4.038,0,0,1,2.376-.591h.694v-.3a1.069,1.069,0,0,0-.257-.829,1.378,1.378,0,0,0-.9-.225,4.18,4.18,0,0,0-.81.1,8.369,8.369,0,0,0-.976.263l-.462-1.336a7.847,7.847,0,0,1,1.317-.373,6.747,6.747,0,0,1,1.252-.128,3.176,3.176,0,0,1,2.145.6,2.3,2.3,0,0,1,.681,1.811v2.646A1.128,1.128,0,0,0,407.731,113.388Zm-2.1-.475v-1.207h-.5a1.781,1.781,0,0,0-1.034.244.869.869,0,0,0-.34.758.891.891,0,0,0,.212.636.762.762,0,0,0,.584.225A1.2,1.2,0,0,0,405.631,112.913Z" transform="translate(-364.631 -104.384)"/><path class="h" d="M428.8,111.1a2.927,2.927,0,0,1-.867.4,3.575,3.575,0,0,1-.983.141q-2.235-.013-2.235-2.466v-3.16h-.964V104.6h.964v-1.477l2.029-.231V104.6h1.567l-.218,1.413H426.74v3.134a1.156,1.156,0,0,0,.154.681.57.57,0,0,0,.488.206,1.492,1.492,0,0,0,.732-.218Z" transform="translate(-379.908 -101.002)"/><path class="h" d="M446.757,111.988h-4.226a1.887,1.887,0,0,0,.488,1.207,1.536,1.536,0,0,0,1.066.347,2.2,2.2,0,0,0,.8-.148,4.112,4.112,0,0,0,.835-.456l.835,1.13a4.164,4.164,0,0,1-2.659.951,3.259,3.259,0,0,1-2.543-.976,3.748,3.748,0,0,1-.887-2.62,4.509,4.509,0,0,1,.372-1.869,2.94,2.94,0,0,1,2.813-1.792,2.958,2.958,0,0,1,2.312.925,3.7,3.7,0,0,1,.835,2.569A6,6,0,0,1,446.757,111.988Zm-1.952-1.31q-.026-1.567-1.1-1.567a.96.96,0,0,0-.816.385,2.463,2.463,0,0,0-.353,1.271H444.8Z" transform="translate(-391.512 -104.384)"/></g><g transform="translate(234.198 69.119)"><path class="i" d="M284.146,149.614l-1.494,2.853v1.783h-.646v-1.776l-1.494-2.86h.706l1.131,2.294,1.13-2.294Z" transform="translate(-280.513 -149.204)"/><path class="i" d="M295.207,153.412a2.053,2.053,0,0,1,.414,1.352,2.356,2.356,0,0,1-.188.972,1.475,1.475,0,0,1-.545.653,1.522,1.522,0,0,1-.848.232,1.435,1.435,0,0,1-1.164-.5,2.039,2.039,0,0,1-.417-1.352,2.357,2.357,0,0,1,.188-.972,1.475,1.475,0,0,1,.545-.653,1.531,1.531,0,0,1,.855-.232A1.426,1.426,0,0,1,295.207,153.412Zm-2.083,1.359q0,1.352.915,1.352t.915-1.359q0-1.352-.908-1.352T293.124,154.771Z" transform="translate(-288.805 -151.494)"/><path class="i" d="M308.7,156.724h-.532l-.047-.552a1.35,1.35,0,0,1-.464.481,1.26,1.26,0,0,1-.639.151.943.943,0,0,1-.727-.283,1.133,1.133,0,0,1-.262-.8v-2.543h.619v2.476a.8.8,0,0,0,.128.515.517.517,0,0,0,.417.151,1.054,1.054,0,0,0,.888-.612v-2.53h.619Z" transform="translate(-298.228 -151.678)"/><path class="i" d="M320.837,152.954l-.114.606a1.277,1.277,0,0,0-.31-.04.658.658,0,0,0-.531.242,1.8,1.8,0,0,0-.316.754v2.025h-.619v-3.546h.532l.061.72a1.346,1.346,0,0,1,.384-.6.855.855,0,0,1,.565-.2A1.441,1.441,0,0,1,320.837,152.954Z" transform="translate(-307.192 -151.494)"/><path class="i" d="M334.818,149.614l-.067.545h-1.285v4.091h-.639v-4.091h-1.319v-.545Z" transform="translate(-315.912 -149.204)"/><path class="i" d="M345.242,156.033a.45.45,0,0,0,.222.158l-.141.431a.949.949,0,0,1-.444-.155.708.708,0,0,1-.249-.377,1.189,1.189,0,0,1-1.056.532,1.132,1.132,0,0,1-.827-.3,1.034,1.034,0,0,1-.3-.774,1.016,1.016,0,0,1,.407-.868,1.9,1.9,0,0,1,1.154-.3h.545v-.263a.691.691,0,0,0-.181-.538.823.823,0,0,0-.559-.161,3.133,3.133,0,0,0-.955.188l-.154-.451a3.567,3.567,0,0,1,1.224-.242,1.28,1.28,0,0,1,.935.306,1.171,1.171,0,0,1,.31.871v1.622A.557.557,0,0,0,345.242,156.033Zm-.693-.427v-.814h-.464q-.983,0-.982.727a.664.664,0,0,0,.155.478.6.6,0,0,0,.458.161A.924.924,0,0,0,344.549,155.605Z" transform="translate(-323.503 -151.494)"/><path class="i" d="M355.379,153.194a.794.794,0,0,1-.2-.575v-4.272l.619-.074v4.333a.362.362,0,0,0,.05.215.2.2,0,0,0,.172.067.611.611,0,0,0,.228-.04l.161.431a1.008,1.008,0,0,1-.491.121A.72.72,0,0,1,355.379,153.194Z" transform="translate(-332.345 -148.272)"/><path class="i" d="M363.71,154.98h-2.261a1.382,1.382,0,0,0,.3.861.859.859,0,0,0,.66.276,1.446,1.446,0,0,0,.471-.074,1.9,1.9,0,0,0,.451-.235l.269.37a1.959,1.959,0,0,1-1.238.444,1.435,1.435,0,0,1-1.154-.484,1.984,1.984,0,0,1-.414-1.332,2.528,2.528,0,0,1,.178-.979,1.538,1.538,0,0,1,.511-.669,1.3,1.3,0,0,1,.784-.242,1.315,1.315,0,0,1,1.083.464,1.986,1.986,0,0,1,.376,1.285Q363.724,154.818,363.71,154.98Zm-.6-.5a1.31,1.31,0,0,0-.209-.8.735.735,0,0,0-.625-.276q-.761,0-.828,1.117h1.662Z" transform="translate(-336.239 -151.494)"/><path class="i" d="M376.042,153.2a1.112,1.112,0,0,1,.272.794v2.543H375.7v-2.456a.784.784,0,0,0-.141-.532.536.536,0,0,0-.417-.155.808.808,0,0,0-.5.161,1.679,1.679,0,0,0-.4.464v2.516h-.619v-3.546h.532l.053.525a1.4,1.4,0,0,1,.468-.444,1.206,1.206,0,0,1,.615-.161A.991.991,0,0,1,376.042,153.2Z" transform="translate(-345.142 -151.494)"/><path class="i" d="M386.985,154.577a1.362,1.362,0,0,1-.794.242.937.937,0,0,1-.7-.259,1.032,1.032,0,0,1-.252-.75v-2.14h-.619v-.478h.619v-.8l.619-.074v.875h.841l-.067.478h-.774v2.113a.65.65,0,0,0,.1.4.388.388,0,0,0,.326.124,1.011,1.011,0,0,0,.471-.141Z" transform="translate(-352.778 -149.692)"/><path class="i" d="M402.384,149.629a1.843,1.843,0,0,1,.687.817,3.134,3.134,0,0,1,.245,1.305,3.1,3.1,0,0,1-.245,1.292,1.79,1.79,0,0,1-1.712,1.1,1.893,1.893,0,0,1-1.026-.276,1.818,1.818,0,0,1-.686-.814,3.542,3.542,0,0,1,0-2.59,1.87,1.87,0,0,1,.69-.831,1.849,1.849,0,0,1,1.023-.286A1.877,1.877,0,0,1,402.384,149.629Zm-1.968.7a2.421,2.421,0,0,0-.337,1.426,2.353,2.353,0,0,0,.34,1.413,1.109,1.109,0,0,0,.939.451q1.278,0,1.278-1.87t-1.278-1.877A1.1,1.1,0,0,0,400.416,150.332Z" transform="translate(-363.04 -149.02)"/><path class="i" d="M416.793,153a1.611,1.611,0,0,1,.5.293l-.3.39a1.524,1.524,0,0,0-.366-.2,1.165,1.165,0,0,0-.394-.064.77.77,0,0,0-.67.343,1.781,1.781,0,0,0-.239,1.016,1.681,1.681,0,0,0,.235.992.785.785,0,0,0,.673.32,1.107,1.107,0,0,0,.384-.064,1.95,1.95,0,0,0,.39-.205l.283.4a1.684,1.684,0,0,1-1.083.39,1.411,1.411,0,0,1-1.134-.484,2,2,0,0,1-.414-1.339,2.416,2.416,0,0,1,.188-.989,1.525,1.525,0,0,1,.535-.659,1.43,1.43,0,0,1,.825-.235A1.759,1.759,0,0,1,416.793,153Z" transform="translate(-373.638 -151.494)"/><path class="i" d="M427.663,154.98H425.4a1.381,1.381,0,0,0,.3.861.859.859,0,0,0,.66.276,1.446,1.446,0,0,0,.471-.074,1.9,1.9,0,0,0,.451-.235l.269.37a1.959,1.959,0,0,1-1.238.444,1.435,1.435,0,0,1-1.154-.484,1.986,1.986,0,0,1-.414-1.332,2.527,2.527,0,0,1,.178-.979,1.538,1.538,0,0,1,.511-.669,1.3,1.3,0,0,1,.784-.242,1.315,1.315,0,0,1,1.083.464,1.986,1.986,0,0,1,.376,1.285C427.677,154.766,427.672,154.872,427.663,154.98Zm-.6-.5a1.313,1.313,0,0,0-.208-.8.736.736,0,0,0-.626-.276q-.761,0-.828,1.117h1.662Z" transform="translate(-380.633 -151.494)"/><path class="i" d="M439.049,156.033a.451.451,0,0,0,.222.158l-.141.431a.948.948,0,0,1-.444-.155.706.706,0,0,1-.249-.377,1.19,1.19,0,0,1-1.056.532,1.133,1.133,0,0,1-.828-.3,1.034,1.034,0,0,1-.3-.774,1.017,1.017,0,0,1,.407-.868,1.9,1.9,0,0,1,1.154-.3h.545v-.263a.69.69,0,0,0-.182-.538.822.822,0,0,0-.558-.161,3.13,3.13,0,0,0-.955.188l-.155-.451a3.569,3.569,0,0,1,1.225-.242,1.28,1.28,0,0,1,.935.306,1.172,1.172,0,0,1,.309.871v1.622A.554.554,0,0,0,439.049,156.033Zm-.693-.427v-.814h-.464q-.982,0-.982.727a.664.664,0,0,0,.155.478.6.6,0,0,0,.458.161A.924.924,0,0,0,438.356,155.605Z" transform="translate(-388.621 -151.494)"/><path class="i" d="M451.744,153.2a1.112,1.112,0,0,1,.273.794v2.543H451.4v-2.456a.786.786,0,0,0-.141-.532.537.537,0,0,0-.417-.155.808.808,0,0,0-.5.161,1.682,1.682,0,0,0-.4.464v2.516h-.619v-3.546h.532l.054.525a1.4,1.4,0,0,1,.468-.444,1.207,1.207,0,0,1,.616-.161A.991.991,0,0,1,451.744,153.2Z" transform="translate(-397.692 -151.494)"/></g></g></svg>