<svg xmlns="http://www.w3.org/2000/svg" width="26" height="26.004" viewBox="0 0 26 26.004">
  <g id="support_chat" transform="translate(-3.375 -3.375)">
    <path id="Path_2805" data-name="Path 2805" d="M27.921,11.981H14.068a2.385,2.385,0,0,0-2.382,2.382v9.646a2.38,2.38,0,0,0,2.382,2.376h7.927a.683.683,0,0,1,.475.2l3.938,3.632c.219.213.581.125.581-.181V26.872c0-.375.238-.494.613-.494h.063A2.6,2.6,0,0,0,30.3,24v-9.64A2.372,2.372,0,0,0,27.921,11.981Z" transform="translate(-0.922 -0.954)" fill="#fff"/>
    <path id="Path_2806" data-name="Path 2806" d="M11.277,9.5h11.09V5.413a2.038,2.038,0,0,0-2.038-2.038H5.413A2.038,2.038,0,0,0,3.375,5.413V15.74a2.038,2.038,0,0,0,2.038,2.038h3.82V11.533A2.048,2.048,0,0,1,11.277,9.5Z" transform="translate(0 0)" fill="#fff"/>
  </g>
</svg>
